<?xml version="1.0" standalone="no"?>
<!DOCTYPE svg PUBLIC "-//W3C//DTD SVG 20010904//EN"
 "http://www.w3.org/TR/2001/REC-SVG-20010904/DTD/svg10.dtd">
<svg version="1.0" xmlns="http://www.w3.org/2000/svg"
 width="1182.000000pt" height="1182.000000pt" viewBox="0 0 1182.000000 1182.000000"
 preserveAspectRatio="xMidYMid meet">

<g transform="translate(0.000000,1182.000000) scale(0.100000,-0.100000)"
fill="#000000" stroke="none">
<path d="M4069 8136 c-41 -18 -107 -52 -146 -77 -105 -64 -341 -229 -380 -265
l-33 -31 15 -49 c8 -27 18 -59 21 -70 5 -18 -10 -31 -103 -88 -108 -67 -108
-67 -165 -61 -62 6 -127 -14 -165 -51 -10 -11 -30 -27 -45 -36 -16 -11 -31
-33 -37 -56 -6 -21 -25 -51 -43 -68 -18 -17 -159 -109 -313 -204 -314 -194
-348 -217 -339 -231 9 -15 11 -14 313 165 325 193 329 195 342 175 5 -8 9 -24
9 -37 0 -12 7 -25 15 -28 8 -4 76 -1 151 6 l135 13 35 76 c33 71 35 79 24 116
-27 95 -33 84 90 158 61 37 120 67 130 67 10 0 32 -18 50 -39 40 -51 58 -56
128 -36 74 22 507 260 527 291 48 74 34 180 -38 292 -69 107 -80 111 -178 68z
m39 -118 l-3 -41 -230 -138 c-126 -76 -240 -138 -253 -138 -20 -1 -23 3 -20
26 2 20 20 41 64 76 75 60 402 256 427 257 15 0 18 -7 15 -42z m-40 -179 l3
-35 -179 -92 c-99 -51 -188 -92 -200 -92 -19 0 -32 18 -32 45 0 20 361 216
390 212 9 -1 16 -15 18 -38z m42 -108 c0 -15 -35 -39 -152 -100 -162 -85 -208
-98 -208 -58 0 20 22 34 157 100 165 80 203 91 203 58z"/>
<path d="M9102 7525 c-63 -19 -111 -61 -138 -119 -23 -48 -24 -61 -24 -253 l0
-203 50 0 50 0 0 173 c0 94 5 188 10 207 5 20 26 51 45 70 33 32 41 35 95 35
53 0 62 -3 93 -33 43 -41 59 -96 55 -182 l-3 -65 -122 -3 -123 -3 0 -24 c0
-37 33 -65 78 -65 20 0 67 -3 105 -7 l67 -6 0 -48 0 -49 50 0 50 0 0 203 c0
199 -1 204 -26 255 -55 110 -182 158 -312 117z"/>
<path d="M4910 7241 l0 -291 50 0 50 0 0 265 c0 252 -1 266 -20 285 -11 11
-26 20 -34 20 -8 0 -21 3 -30 6 -14 6 -16 -24 -16 -285z"/>
<path d="M5172 7514 c-15 -29 -24 -295 -14 -416 10 -120 24 -148 74 -148 l28
0 0 144 c0 79 3 152 6 161 5 13 43 -19 170 -146 132 -132 166 -161 176 -151
10 10 14 74 16 245 2 127 0 242 -3 254 -8 34 -41 63 -70 63 l-25 0 0 -160 0
-161 -21 12 c-12 6 -90 81 -174 166 -135 138 -154 153 -163 137z"/>
<path d="M6520 7503 c-61 -32 -106 -88 -120 -149 -13 -56 -12 -205 2 -245 34
-98 113 -158 223 -167 114 -9 205 40 251 134 25 50 26 60 22 171 -3 89 -8 127
-22 153 -45 87 -106 122 -221 128 -73 4 -85 1 -135 -25z m206 -92 c48 -29 69
-82 69 -176 0 -92 -19 -135 -75 -172 -64 -44 -157 -21 -200 49 -46 75 -34 222
23 275 18 17 39 33 47 36 34 12 106 6 136 -12z"/>
<path d="M7022 7501 c-15 -43 -16 -441 -2 -493 6 -21 19 -42 30 -48 28 -15 57
-12 64 6 3 9 6 82 6 162 l0 147 169 -169 c156 -156 170 -167 180 -148 7 14 11
106 11 267 l0 246 -25 24 c-13 14 -33 25 -45 25 -19 0 -20 -5 -20 -159 0 -98
-4 -162 -10 -166 -6 -4 -86 71 -178 166 l-169 173 -11 -33z"/>
<path d="M8730 7238 l0 -288 50 0 51 0 -3 264 c-3 292 -5 299 -69 308 l-29 5
0 -289z"/>
<path d="M9552 7506 c-16 -35 -17 -459 -1 -505 12 -34 35 -51 68 -51 20 0 21
5 21 148 0 81 4 152 8 159 5 8 61 -41 172 -152 158 -158 165 -164 177 -142 9
16 12 91 13 265 l0 243 -25 24 c-13 14 -36 25 -50 25 l-25 0 0 -165 c0 -91 -3
-165 -7 -165 -4 0 -81 77 -173 172 l-165 171 -13 -27z"/>
<path d="M5770 7282 c0 -131 3 -260 6 -286 l7 -46 43 0 44 0 2 233 3 232 85 3
c133 5 195 -22 231 -102 36 -79 20 -157 -44 -213 -43 -38 -91 -53 -169 -53
-55 0 -58 -1 -58 -25 0 -15 12 -38 26 -52 24 -24 30 -25 90 -20 161 15 261
111 272 259 9 123 -39 218 -139 273 -53 30 -56 30 -226 33 l-173 4 0 -240z"/>
<path d="M7632 7238 l3 -283 205 0 205 0 3 26 c2 19 -4 33 -24 48 -24 19 -39
21 -160 21 l-134 0 0 70 0 70 63 0 c69 0 129 14 145 33 6 7 13 24 17 39 l7 27
-114 3 -113 3 -3 61 -3 61 135 5 c151 5 180 16 188 67 l5 31 -214 0 -213 0 2
-282z"/>
<path d="M8245 7505 c-80 -29 -120 -113 -96 -203 21 -78 71 -103 219 -111 97
-5 116 -9 128 -25 23 -31 17 -72 -12 -95 -24 -19 -40 -21 -177 -21 l-149 0 6
-32 c12 -60 21 -63 189 -63 172 0 204 10 238 75 25 46 25 134 1 180 -30 58
-87 80 -203 80 -111 0 -141 14 -141 65 0 18 8 36 22 47 19 16 42 18 171 18
l149 0 0 24 c0 13 -9 34 -19 47 -18 23 -26 24 -153 26 -96 2 -144 -1 -173 -12z"/>
<path d="M4120 7433 c0 -7 -6 -52 -14 -100 -8 -49 -17 -109 -21 -135 l-6 -48
61 0 c55 0 60 -2 46 -15 -10 -10 -35 -15 -75 -15 l-61 0 0 -73 c0 -110 2 -111
146 -105 152 7 338 49 359 81 25 40 -13 165 -64 211 -12 11 -39 20 -63 21 -24
2 -85 17 -137 35 -87 31 -95 36 -120 77 -37 63 -50 80 -51 66z"/>
<path d="M3135 7094 c-88 -14 -175 -58 -175 -89 0 -9 15 -10 58 -3 31 6 119 8
194 5 l137 -6 6 31 c11 48 -10 61 -107 64 -46 1 -96 0 -113 -2z"/>
<path d="M3040 6966 c-87 -24 -109 -42 -141 -114 -124 -275 -279 -708 -302
-843 -13 -74 -13 -82 4 -103 10 -12 48 -37 86 -54 191 -88 529 -81 863 18 154
46 407 151 583 242 72 37 98 32 31 -6 -27 -16 -58 -37 -69 -47 -32 -29 -297
-152 -450 -209 -175 -65 -202 -79 -296 -150 -43 -32 -103 -70 -135 -85 -33
-15 -69 -32 -82 -38 -13 -6 -32 -28 -44 -48 -22 -40 -38 -50 -106 -68 -33 -9
-46 -19 -61 -49 -11 -21 -44 -58 -75 -82 -31 -25 -55 -52 -54 -60 4 -19 71
-52 182 -90 93 -32 585 -110 689 -110 80 0 140 34 220 123 37 41 120 116 185
165 201 154 343 324 455 547 113 227 144 358 116 499 -9 44 -9 70 0 113 9 35
9 59 3 65 -5 5 -61 12 -124 15 -130 7 -197 -5 -242 -42 l-30 -24 37 -21 c37
-22 50 -50 23 -50 -7 0 -33 7 -57 16 -131 47 -231 37 -494 -51 -382 -127 -514
-166 -552 -163 -35 3 -38 5 -41 38 -4 46 49 309 99 493 22 81 37 152 34 157
-18 29 -172 39 -255 16z"/>
<path d="M4535 6964 c-81 -31 -222 -55 -335 -59 l-115 -3 -3 -47 c-5 -78 16
-217 36 -245 40 -53 119 -48 209 12 49 33 111 103 119 135 4 13 10 23 14 23
15 0 -9 -63 -40 -106 l-29 -41 67 -7 c37 -3 93 -6 124 -6 l57 0 -21 48 c-29
66 -29 154 0 210 20 37 21 46 10 70 -16 32 -39 36 -93 16z"/>
<path d="M7133 6870 c-75 -14 -176 -54 -238 -96 -161 -106 -264 -325 -252
-534 8 -146 63 -264 178 -379 126 -128 261 -176 464 -168 183 7 296 55 415
176 114 116 160 235 160 419 l0 112 -301 0 -302 0 5 -51 c6 -60 30 -95 84
-123 32 -17 62 -22 162 -25 119 -3 122 -4 122 -25 0 -39 -59 -142 -106 -186
-86 -79 -218 -120 -325 -101 -211 37 -366 249 -330 453 23 135 107 246 227
303 134 63 228 54 393 -40 56 -32 127 -33 187 -4 70 33 71 40 16 97 -63 65
-155 124 -235 152 -71 25 -239 35 -324 20z"/>
<path d="M6230 6295 l0 -575 99 0 c94 0 99 1 105 23 10 37 7 908 -4 972 -5 33
-18 71 -28 85 -24 33 -98 70 -139 70 l-33 0 0 -575z"/>
<path d="M5040 6840 c-24 -45 -31 -188 -28 -585 3 -408 3 -410 27 -458 31 -62
72 -91 130 -91 l46 -1 3 328 c1 180 5 327 9 327 4 0 156 -148 338 -330 182
-181 335 -330 341 -330 6 0 16 11 22 25 28 61 33 159 30 575 -3 389 -5 429
-22 468 -23 54 -66 84 -127 90 l-49 5 0 -341 c0 -188 -4 -343 -8 -346 -5 -3
-84 75 -177 172 -382 400 -493 512 -508 512 -9 0 -21 -9 -27 -20z"/>
<path d="M8060 6285 l0 -565 37 0 c60 0 116 40 143 101 19 45 23 77 28 216 l5
163 236 0 c130 0 246 -3 259 -6 22 -6 22 -9 22 -153 0 -101 5 -163 15 -197 22
-76 83 -124 156 -124 l29 0 0 565 0 565 -44 0 c-52 0 -101 -30 -130 -80 -18
-30 -22 -57 -26 -200 l-5 -165 -257 -3 -258 -2 0 107 c-1 144 -14 240 -38 272
-32 44 -81 71 -128 71 l-44 0 0 -565z"/>
<path d="M9170 6815 c0 -101 78 -151 248 -160 l77 -4 3 -472 2 -472 50 5 c59
6 115 45 136 94 11 26 14 110 14 406 0 205 3 389 6 408 l6 35 91 3 c113 3 144
13 187 57 26 27 34 44 38 84 l5 51 -432 0 -431 0 0 -35z"/>
<path d="M4682 6373 c19 -147 -1 -223 -132 -501 -28 -58 -30 -70 -30 -182 0
-113 -2 -124 -29 -178 -16 -31 -75 -115 -131 -187 -86 -111 -170 -238 -170
-258 0 -10 53 -16 241 -28 139 -8 192 -8 208 0 25 14 54 69 133 256 121 285
121 284 37 677 -33 156 -65 301 -71 323 -16 62 -49 145 -57 145 -4 0 -4 -30 1
-67z"/>
<path d="M6560 5650 c-112 -24 -199 -93 -249 -199 l-26 -56 0 -285 0 -285 73
-3 72 -3 0 244 c0 272 8 321 62 383 100 113 268 89 340 -50 18 -33 22 -64 26
-163 l4 -123 -181 0 -181 0 0 -33 c0 -18 7 -43 16 -56 29 -41 72 -51 213 -51
l130 0 3 -72 3 -73 70 0 70 0 0 285 0 285 -28 60 c-36 76 -110 147 -183 174
-64 25 -171 34 -234 21z"/>
<path d="M5440 5618 c-19 -31 -20 -49 -20 -371 0 -302 2 -342 17 -368 19 -32
68 -59 107 -59 l26 0 0 245 c0 135 3 245 7 245 4 0 51 -43 105 -97 l97 -96 58
51 c32 28 80 73 107 101 27 27 53 48 58 45 4 -3 8 -115 8 -250 0 -241 0 -244
21 -244 36 0 84 29 104 63 19 30 20 55 23 339 3 315 -1 365 -36 408 l-18 22
-153 -163 c-85 -90 -157 -165 -161 -167 -4 -1 -76 71 -161 160 -85 90 -157
164 -161 166 -4 2 -17 -11 -28 -30z"/>
<path d="M7183 5634 c-10 -4 -13 -97 -13 -416 l0 -410 33 7 c82 17 106 63 106
208 l1 97 63 0 c89 0 110 -16 210 -169 l87 -131 90 0 c49 0 90 2 90 4 0 3 -45
70 -100 150 -55 79 -100 149 -100 154 0 5 10 12 23 15 42 11 103 66 132 119
24 43 30 65 29 118 0 102 -51 178 -154 231 -42 22 -58 23 -265 26 -121 1 -226
0 -232 -3z m387 -144 c54 -7 70 -14 93 -40 40 -45 32 -105 -21 -153 -44 -40
-258 -44 -305 -6 -19 15 -22 29 -25 107 l-4 91 39 4 c74 7 159 6 223 -3z"/>
<path d="M8024 5621 c-56 -34 -58 -52 -62 -445 l-3 -359 38 6 c50 8 85 36 100
78 7 19 12 90 12 162 1 104 4 127 15 127 28 0 66 -46 174 -205 l107 -160 57
-3 c31 -2 70 1 86 5 l30 8 -139 197 c-76 108 -139 202 -139 208 0 6 36 53 80
105 92 109 120 159 120 213 0 37 -31 83 -56 81 -5 0 -61 -62 -124 -136 -107
-127 -157 -173 -187 -173 -10 0 -13 38 -13 155 l0 155 -32 0 c-18 0 -47 -9
-64 -19z"/>
<path d="M8710 5225 l0 -405 305 0 c300 0 305 0 305 20 0 38 -28 89 -59 104
-24 13 -67 16 -216 16 l-186 0 3 103 3 102 116 5 c131 6 161 19 185 75 27 67
31 65 -146 65 l-160 0 0 89 c0 84 1 89 23 95 12 3 93 6 180 6 113 0 167 4 192
14 35 15 65 59 65 96 0 20 -4 20 -305 20 l-305 0 0 -405z"/>
<path d="M9407 5622 c-8 -12 21 -86 40 -99 26 -20 82 -33 141 -33 l52 0 0
-335 0 -335 31 0 c39 0 83 26 101 59 10 20 14 99 16 319 l3 292 59 0 c107 0
170 43 170 115 l0 25 -304 0 c-168 0 -307 -3 -309 -8z"/>
<path d="M1040 5441 c14 -11 106 -70 204 -132 896 -560 1912 -996 2755 -1184
532 -118 850 -151 1364 -142 643 12 1074 -31 1264 -124 78 -38 116 -75 132
-130 30 -99 185 -206 386 -265 76 -23 110 -27 220 -28 128 -1 132 0 245 41
519 186 612 217 710 234 58 10 114 19 125 19 12 0 58 -24 103 -54 110 -73 278
-136 442 -167 75 -13 251 -10 313 6 71 18 145 55 174 87 12 13 34 50 48 83 59
135 136 175 345 183 142 5 274 -9 454 -49 49 -10 91 -17 93 -16 1 2 -32 23
-75 47 -42 24 -187 110 -322 190 -135 81 -273 162 -308 181 -80 41 -156 49
-234 24 -115 -38 -145 -83 -128 -193 6 -37 14 -70 18 -74 13 -13 162 -55 241
-68 86 -14 79 -30 -14 -30 -78 0 -191 28 -342 84 -193 72 -376 95 -493 60 -44
-13 -66 -28 -117 -82 -35 -36 -63 -70 -63 -76 0 -6 47 -36 105 -66 58 -30 107
-61 110 -69 10 -25 -72 -5 -169 42 -91 45 -142 80 -272 190 -166 141 -363 214
-666 248 -130 14 -172 5 -244 -51 -180 -142 -220 -169 -266 -181 -27 -6 -60
-9 -73 -6 -27 5 -29 8 23 -58 13 -16 61 -68 105 -114 80 -82 81 -83 47 -76
-82 18 -141 71 -350 315 -242 282 -283 317 -493 415 -159 74 -198 81 -637 110
-129 9 -245 18 -257 20 -11 3 -52 42 -90 87 -67 81 -68 81 -73 53 -7 -43 -50
-56 -88 -28 -37 28 -41 67 -7 89 21 14 30 15 52 5 23 -10 21 -7 -15 36 -22 26
-60 70 -84 96 l-45 48 -294 -7 c-262 -6 -672 3 -1031 22 l-116 6 -16 -31 c-13
-24 -23 -31 -46 -31 -45 0 -79 17 -90 45 -5 14 -15 25 -22 25 -7 0 -119 14
-248 30 -129 16 -238 30 -241 30 -4 0 -9 -9 -12 -20 -4 -17 -14 -20 -61 -20
-52 0 -70 -10 -46 -25 15 -9 12 -51 -5 -65 -11 -9 -37 -11 -89 -7 -71 6 -74 6
-69 -14 3 -11 -2 -28 -13 -40 -15 -17 -26 -19 -62 -14 -23 3 -57 12 -75 20
-47 19 -62 6 -62 -52 l0 -48 -122 -1 c-123 0 -140 5 -111 34 9 9 9 15 0 24
-16 16 -15 53 2 67 23 19 81 24 120 11 49 -16 78 -7 120 35 30 30 42 35 80 35
33 0 52 7 74 25 23 19 41 25 80 25 l50 0 4 43 c3 23 4 43 3 44 -1 2 -54 21
-119 43 -95 33 -130 40 -191 40 -93 0 -125 -11 -125 -44 0 -15 -7 -27 -18 -30
-31 -10 -110 10 -150 38 -52 35 -80 34 -94 -4 -19 -57 -87 -49 -180 21 -61 45
-89 49 -112 14 -13 -19 -25 -25 -54 -25 -40 0 -64 13 -125 67 -20 18 -41 33
-47 33 -5 0 -16 -16 -24 -35 -14 -32 -19 -35 -56 -35 -48 0 -67 9 -107 48 -18
18 -44 31 -71 35 -27 5 -42 12 -42 22 0 15 14 20 80 29 19 3 49 8 67 12 20 4
50 0 79 -10 28 -9 80 -16 125 -16 56 0 93 -6 131 -21 41 -16 73 -21 141 -20
60 1 97 -4 117 -14 38 -19 93 -19 131 1 28 14 35 14 77 -1 26 -9 85 -19 132
-21 l85 -4 -60 28 c-33 16 -84 35 -113 41 -59 15 -300 19 -350 7 -28 -7 -36
-5 -57 18 -27 29 -45 31 -108 14 -39 -10 -48 -9 -78 9 -40 24 -183 42 -194 24
-11 -18 -75 -12 -102 9 -36 28 -58 25 -73 -10 -10 -25 -18 -30 -47 -30 -19 0
-48 7 -65 16 -25 13 -35 14 -54 4 -38 -21 -104 4 -104 39 0 29 -14 39 -70 45
l-55 7 25 -20z m985 -302 c14 -22 -3 -18 -26 7 -23 25 -23 26 -2 15 12 -6 25
-16 28 -22z m-311 -24 c-4 -8 -10 -15 -14 -15 -4 0 -13 7 -20 15 -11 13 -8 15
13 15 19 0 25 -4 21 -15z m876 5 c19 -6 72 -13 118 -17 58 -4 82 -10 82 -19 0
-8 -19 -16 -52 -20 -40 -5 -58 -14 -79 -37 -26 -28 -31 -29 -76 -22 -26 4 -67
7 -89 6 -34 -1 -43 3 -47 20 -9 34 -31 16 -31 -27 l-1 -39 -57 0 c-51 0 -61 4
-91 33 -18 17 -37 32 -42 32 -5 0 -4 -5 3 -12 7 -7 12 -29 12 -50 0 -32 -4
-39 -25 -44 -49 -12 -92 4 -133 51 -22 25 -44 45 -49 45 -5 0 -25 -11 -44 -26
-39 -29 -69 -27 -151 8 -52 22 -55 31 -33 85 15 35 16 36 60 30 25 -4 64 -16
87 -28 41 -21 46 -21 158 -9 63 7 166 14 228 15 81 3 120 8 135 19 26 18 69
20 117 6z m610 -115 c0 -9 -9 -15 -25 -15 -16 0 -25 6 -25 15 0 9 9 15 25 15
16 0 25 -6 25 -15z m120 -30 c0 -11 -11 -15 -40 -15 -35 0 -39 2 -28 15 18 19
68 20 68 0z m220 -43 c29 -18 46 -36 48 -51 5 -34 -17 -81 -42 -86 -28 -7
-156 36 -169 56 -14 22 -1 66 29 96 31 31 66 27 134 -15z m-250 -1 c33 -9 40
-55 11 -73 -20 -12 -19 -14 21 -33 24 -11 44 -28 46 -37 4 -23 -56 -88 -82
-88 -29 0 -150 80 -154 103 -2 10 10 30 27 47 18 16 27 31 21 35 -5 3 -10 17
-10 31 0 22 4 24 48 23 26 -1 58 -4 72 -8z m1104 -78 c81 -94 84 -118 16 -118
-25 0 -55 4 -66 8 l-22 8 20 -41 c25 -49 18 -110 -11 -110 -59 0 -111 14 -111
29 0 9 -22 47 -50 85 -51 70 -62 109 -34 120 9 3 53 6 99 6 l84 0 -15 35 c-19
45 -18 55 5 55 11 0 46 -32 85 -77z m-502 22 l5 -24 -28 20 c-35 25 -36 29 -5
29 17 0 25 -7 28 -25z m-1624 -27 c19 -32 12 -43 -23 -34 -28 7 -40 27 -31 52
9 22 35 14 54 -18z m812 2 c0 -5 -10 -15 -22 -21 -23 -12 -23 -12 -4 10 21 23
26 26 26 11z m690 -20 c9 -17 6 -20 -26 -26 -42 -8 -64 7 -44 31 18 21 57 19
70 -5z m880 -15 c0 -8 -9 -15 -20 -15 -11 0 -20 7 -20 15 0 8 9 15 20 15 11 0
20 -7 20 -15z m-588 -25 c11 0 18 -7 18 -20 0 -11 -7 -20 -15 -20 -8 0 -15 7
-15 15 0 9 -7 18 -15 21 -8 4 -15 11 -15 17 0 7 4 7 12 -1 7 -7 20 -12 30 -12z
m-950 -25 c76 -48 80 -65 31 -123 -49 -57 -64 -67 -94 -59 -37 10 -129 100
-129 126 0 13 15 38 34 57 46 46 84 45 158 -1z m826 -25 c35 -16 42 -24 42
-48 0 -41 -22 -56 -70 -49 -61 8 -90 31 -90 71 0 18 3 36 7 39 12 13 68 6 111
-13z m1237 11 c7 -12 -12 -24 -25 -16 -11 7 -4 25 10 25 5 0 11 -4 15 -9z
m-2577 -17 c-9 -9 -24 -14 -32 -11 -27 11 -17 27 16 27 30 0 31 -1 16 -16z
m897 -7 c42 -24 54 -49 35 -72 -19 -23 -53 -18 -98 15 -38 28 -52 56 -35 73
13 14 59 6 98 -16z m-669 -28 c22 -24 10 -52 -25 -57 -41 -6 -67 38 -39 66 18
18 43 15 64 -9z m908 -13 c0 -18 9 -38 23 -52 27 -27 29 -60 7 -92 -20 -29
-86 -30 -131 -2 -28 17 -33 26 -33 58 0 43 14 62 47 62 19 0 23 5 23 31 0 28
2 30 33 27 28 -3 32 -6 31 -32z m956 6 c47 -12 75 -15 101 -8 55 13 72 3 64
-36 -16 -71 -48 -88 -90 -48 l-22 20 -48 -21 c-50 -22 -83 -22 -197 -1 -59 11
-80 28 -76 61 2 20 12 29 38 38 50 17 154 15 230 -5z m370 -37 c0 -10 -10 -15
-30 -15 -20 0 -30 5 -30 15 0 10 10 15 30 15 20 0 30 -5 30 -15z m155 5 c3 -5
-1 -10 -9 -10 -8 0 -18 5 -21 10 -3 6 1 10 9 10 8 0 18 -4 21 -10z m-2337 -66
c15 -11 22 -25 22 -50 0 -32 -2 -34 -36 -34 -69 0 -118 52 -82 88 17 17 69 15
96 -4z m562 6 c0 -5 -5 -10 -11 -10 -5 0 -7 5 -4 10 3 6 8 10 11 10 2 0 4 -4
4 -10z m515 -10 c4 -6 21 -8 39 -5 29 6 32 4 44 -29 14 -39 43 -59 123 -82 58
-17 93 -56 114 -126 36 -122 18 -141 -138 -142 -109 -1 -114 0 -182 34 -68 34
-70 36 -73 76 -4 58 12 71 103 79 41 4 78 12 82 18 7 12 -76 91 -121 114 -35
18 -46 31 -46 56 0 19 44 25 55 7z m1142 -6 c7 -18 -14 -35 -37 -31 -8 1 -16
12 -18 25 -3 18 1 22 23 22 14 0 28 -7 32 -16z m-543 -25 c23 -6 69 -30 102
-55 34 -26 75 -47 97 -51 36 -5 37 -7 37 -47 0 -54 -9 -86 -24 -86 -7 0 -25
14 -42 31 -40 42 -69 55 -138 62 -70 7 -149 44 -195 91 -50 51 -39 66 49 66
39 0 90 -5 114 -11z m-1194 -33 c0 -13 -9 -34 -19 -47 l-19 -24 10 52 c10 52
28 64 28 19z m1760 -7 c0 -15 -5 -20 -22 -17 -34 5 -37 38 -4 38 20 0 26 -5
26 -21z m460 -5 c0 -9 -7 -14 -17 -12 -25 5 -28 28 -4 28 12 0 21 -6 21 -16z
m-2070 -4 c0 -5 -4 -10 -9 -10 -6 0 -13 5 -16 10 -3 6 1 10 9 10 9 0 16 -4 16
-10z m1999 -19 c21 -14 5 -43 -21 -39 -29 4 -39 48 -11 48 10 0 24 -4 32 -9z
m-2020 -44 c89 -27 102 -42 78 -91 -14 -31 -21 -36 -51 -36 -35 0 -140 34
-163 53 -31 23 0 97 40 97 12 0 55 -10 96 -23z m1461 3 c0 -11 -6 -20 -14 -20
-21 0 -31 21 -15 31 22 14 29 11 29 -11z m-1063 -34 c-11 -27 -27 -17 -27 16
0 30 1 31 16 16 9 -9 14 -24 11 -32z m1243 11 c0 -7 -5 -18 -12 -25 -18 -18
-38 -15 -38 6 0 10 3 22 7 25 11 12 43 7 43 -6z m510 -22 c0 -8 -7 -15 -15
-15 -8 0 -15 7 -15 15 0 8 7 15 15 15 8 0 15 -7 15 -15z m-212 -37 c3 -13 -3
-18 -22 -18 -20 0 -26 5 -26 21 0 15 5 20 22 17 13 -2 24 -11 26 -20z m-213
-28 c0 -8 -10 -16 -22 -18 -18 -3 -23 2 -23 18 0 16 5 21 23 18 12 -2 22 -10
22 -18z m-135 -15 c0 -8 -9 -15 -20 -15 -11 0 -20 7 -20 15 0 8 9 15 20 15 11
0 20 -7 20 -15z m1156 -22 c-10 -10 -19 5 -10 18 6 11 8 11 12 0 2 -7 1 -15
-2 -18z m-1792 -3 c15 -15 -2 -40 -27 -40 -30 0 -52 24 -43 46 5 12 13 14 34
9 15 -3 31 -10 36 -15z m1110 -15 c0 -5 -12 -14 -27 -19 -30 -11 -55 4 -42 24
8 13 70 9 69 -5z m-944 -10 c0 -8 -9 -15 -20 -15 -20 0 -26 11 -13 23 12 13
33 7 33 -8z m368 -17 c2 -12 -5 -19 -23 -24 -31 -8 -50 7 -41 31 8 22 60 16
64 -7z m692 -8 c0 -11 -6 -20 -13 -20 -19 0 -27 10 -20 26 8 21 33 17 33 -6z
m-882 -26 c51 -35 9 -114 -52 -98 -68 17 -52 109 19 113 6 1 21 -6 33 -15z
m442 -9 c0 -8 -9 -15 -20 -15 -11 0 -20 7 -20 15 0 8 9 15 20 15 11 0 20 -7
20 -15z m178 -37 c3 -13 -3 -18 -22 -18 -20 0 -26 5 -26 21 0 15 5 20 22 17
13 -2 24 -11 26 -20z m652 18 c0 -11 -19 -15 -25 -6 -3 5 1 10 9 10 9 0 16 -2
16 -4z m-1510 -37 c0 -14 -5 -19 -17 -17 -26 5 -29 38 -4 38 15 0 21 -6 21
-21z m1700 6 c0 -8 -4 -15 -10 -15 -5 0 -7 7 -4 15 4 8 8 15 10 15 2 0 4 -7 4
-15z m-1102 -28 c3 -12 -3 -17 -22 -17 -25 0 -35 18 -19 34 12 12 38 2 41 -17z
m592 -13 c0 -8 -6 -14 -14 -14 -12 0 -14 10 -7 38 3 10 21 -11 21 -24z m-650
1 c26 -32 -13 -81 -47 -59 -35 22 -23 74 17 74 10 0 23 -7 30 -15z"/>
<path d="M5580 3881 c207 -59 227 -62 369 -68 154 -6 166 -1 93 36 -29 15 -77
21 -222 30 -102 6 -212 13 -245 16 l-60 5 65 -19z"/>
<path d="M6189 3857 c7 -9 27 -25 45 -36 52 -31 276 -41 276 -11 0 4 -17 18
-37 30 -33 20 -56 24 -168 28 -119 4 -129 3 -116 -11z"/>
</g>
</svg>
