<svg id="visual" viewBox="0 0 960 540" width="960" height="540" xmlns="http://www.w3.org/2000/svg" xmlns:xlink="http://www.w3.org/1999/xlink" version="1.1"><rect x="0" y="0" width="960" height="540" fill="#FF0066"></rect><g transform="translate(452.7946507761549 300.0382214477004)"><path d="M156.9 -299.1C191.9 -251.6 200.7 -186.3 230.4 -133.5C260.1 -80.7 310.5 -40.3 343.8 19.2C377.1 78.7 393.1 157.5 363.6 210.6C334.1 263.7 259.1 291.2 190.9 291.2C122.7 291.2 61.3 263.7 -3.5 269.8C-68.3 275.9 -136.7 315.5 -192.5 308.3C-248.4 301.2 -291.8 247.4 -311.1 188.2C-330.4 129 -325.7 64.5 -317.9 4.5C-310.1 -55.5 -299.3 -111 -271.3 -155.3C-243.4 -199.6 -198.5 -232.7 -150.4 -272.7C-102.3 -312.6 -51.2 -359.3 4.9 -367.8C61 -376.3 122 -346.6 156.9 -299.1" fill="none" stroke="#FFFFFF" stroke-width="25"></path></g></svg>