<svg id="visual" viewBox="0 0 960 540" width="960" height="540" xmlns="http://www.w3.org/2000/svg" xmlns:xlink="http://www.w3.org/1999/xlink" version="1.1"><rect x="0" y="0" width="960" height="540" fill="#FF0066"></rect><g transform="translate(405.2348284557115 343.4968145483543)"><path d="M228 -472.9C243.4 -344.9 167.7 -193.5 246.9 -91.7C326 10 559.9 62.1 584.6 103.8C609.3 145.5 424.8 176.9 304.5 198.8C184.3 220.7 128.2 233.2 50.8 325.6C-26.6 418 -125.3 590.4 -162 570.9C-198.7 551.3 -173.4 339.8 -219.1 224.6C-264.7 109.4 -381.3 90.5 -420.4 40C-459.6 -10.6 -421.3 -92.7 -399.6 -200C-377.8 -307.3 -372.7 -439.7 -308.9 -545.5C-245.1 -651.4 -122.5 -730.7 -8.1 -718.1C106.3 -705.4 212.7 -600.9 228 -472.9" fill="none" stroke="#FFFFFF" stroke-width="25"></path></g></svg>